# xmcd
#
# Track frame offsets: 
#        150
#        7410
#        19937
#        45164
#        54614
#        79629
#        101829
#        121436
#        127568
#        147008
#        149708
#        171472
#        190672
#        205329
#        235220
#
# Disc length: 3307 seconds
#
# Revision: 0
# Processed by: cddbd v1.5.2PL0 Copyright (c) Steve Scherf et al.
# Submitted via: ExactAudioCopyFreeDBPlugin 1.0
#
DISCID=d20ce90f
DTITLE=Yabamm - Palmmuzik
DYEAR=2004
DGENRE=Mula-Funk
TTITLE0=Mulanafu
TTITLE1=KlackKlick
TTITLE2=Frieden oder Stirb
TTITLE3=Wir sind Blut
TTITLE4=HumbaBumba
TTITLE5=Mit dem Buzzz
TTITLE6=Nichtz
TTITLE7=Angst
TTITLE8=Mir ist...
TTITLE9=Tamm
TTITLE10=Der Palm...
TTITLE11=Die Mutthagesegnetan
TTITLE12=Palmmuzik
TTITLE13=Y>a>b>a>m>m
TTITLE14=Meisterplamm
EXTD=
EXTT0=
EXTT1=
EXTT2=
EXTT3=
EXTT4=
EXTT5=
EXTT6=
EXTT7=
EXTT8=
EXTT9=
EXTT10=
EXTT11=
EXTT12=
EXTT13=
EXTT14=
PLAYORDER=
